<svg preserveAspectRatio="xMidYMid meet" data-bbox="21.694 48.548 157.309 107.965" viewBox="21.694 48.548 157.309 107.965" height="100%" width="100%" xmlns="http://www.w3.org/2000/svg" data-type="color" role="img">
  <g>
    <path d="M178.779 83.204a5.094 5.094 0 0 1-.776 1.44 6.377 6.377 0 0 1-.383.459c-.552.603-1.27 1.168-2.153 1.674l-67.342 39.191c-2.351 1.348-5.452 2.021-8.553 2.021-3.101 0-6.204-.674-8.56-2.021l-27.263-15.597-8.225-4.705a10.23 10.23 0 0 1-.828-.525 8.116 8.116 0 0 1-1.325-1.149 5.795 5.795 0 0 1-.883-1.249 4.461 4.461 0 0 1-.442-1.309c-.025-.148-.029-.298-.037-.446l-.018.01v13.037c0 1.774 1.178 3.548 3.534 4.896l.214.122 35.275 20.18c2.356 1.348 5.459 2.021 8.56 2.021 3.101 0 6.202-.674 8.553-2.021l67.342-39.191c2.356-1.348 3.534-3.122 3.534-4.896V81.88a4.23 4.23 0 0 1-.224 1.324z" fill="#23DFD4" data-color="1"></path>
    <path d="M124.317 82.025c1.464-.839 3.396-1.259 5.328-1.259 1.932 0 3.864.42 5.329 1.259l14.432 8.256 7.667-4.422c2.934-1.678 2.934-4.421 0-6.094l-22.1-12.642c-1.464-.839-3.396-1.259-5.329-1.259-1.932 0-3.864.42-5.328 1.259l-1.63.94-4.346 2.507-.139 14.982 5.386-3.106.73-.421z" fill="#23DFD4" data-color="1"></path>
    <path d="M74.823 101.761l3.775 2.16 3.408 1.95.484.277 6.907-3.983c1.016-.837 1.931-1.948 2.648-3.176.975-1.668 1.588-3.548 1.602-5.235l.084-8.99-18.908 10.904c-2.934 1.673-2.934 4.415 0 6.093z" fill="#23DFD4" data-color="1"></path>
    <path d="M175.466 76.99l-35.489-20.302c-2.351-1.348-5.454-2.021-8.557-2.021-3.102 0-6.205.674-8.557 2.021l-.883.514-3.728 2.17c.119.597.181 1.25.173 1.962l-.086 9.236 4.346-2.507 1.63-.94c1.464-.839 3.396-1.259 5.328-1.259 1.932 0 3.864.42 5.329 1.259l22.1 12.642c2.934 1.673 2.934 4.415 0 6.094l-7.667 4.422-24.769 14.285-8.552 4.933c-.063.124-.129.245-.195.368-2.699 1.536-5.132 2.897-5.761 3.26-1.549.893-6.124 3.533-9.758 2.765-.908-.192-2.704-1.034-4.889-2.191-4.033-2.135-9.386-5.336-12.918-7.49l.019-.011-.092-.053-.484-.277-3.408-1.95-3.775-2.16c-2.934-1.678-2.934-4.421 0-6.094l18.908-10.905.071-7.636-41.795 23.861c.008.149.013.298.037.446.074.442.221.88.442 1.309.221.429.515.847.883 1.249.368.402.81.787 1.325 1.149.258.181.534.356.828.525l8.225 4.705 27.263 15.597c2.356 1.348 5.459 2.021 8.56 2.021 3.101 0 6.202-.674 8.553-2.021l67.342-39.191c.884-.505 1.601-1.071 2.153-1.674.138-.151.266-.304.383-.459.352-.465.611-.948.776-1.44.147-.437.221-.88.221-1.324.002-1.772-1.176-3.545-3.532-4.888z" fill="#27F5CE" data-color="2"></path>
    <path d="M118.253 59.372c-.333-1.679-1.135-2.896-2.265-3.556l-11.453-6.694c-1.531-.895-3.658-.774-6.01.58L30.709 88.066c-2.35 1.35-4.496 3.687-6.061 6.364s-2.549 5.696-2.574 8.41l-.38 40.884c-.025 2.714.913 4.626 2.444 5.521l11.453 6.694c1.531.895 3.656.772 6.004-.584l38.953-22.036-9.733-5.537-13.041-7.419-11.436 6.529.154-16.626c.016-1.69.628-3.57 1.603-5.237.975-1.667 2.311-3.123 3.774-3.963l.119-.068.018-.01 41.795-23.861-.071 7.636-.084 8.99c-.014 1.688-.627 3.567-1.602 5.235-.718 1.228-1.632 2.339-2.648 3.176-.364.3-.741.567-1.127.789l-5.688 3.247-.019.011c3.532 2.154 8.885 5.355 12.918 7.49 2.185 1.156 3.981 1.999 4.889 2.191 3.634.768 8.21-1.872 9.758-2.765.629-.363 3.062-1.723 5.761-3.26.065-.123.132-.244.195-.368 1.205-2.38 1.942-4.945 1.962-7.281l.155-16.666.139-14.982.086-9.236a9.48 9.48 0 0 0-.172-1.962zm-5.744-3.991z" fill="#842AE3" data-color="3"></path>
    <path d="M118.253 59.372c-.333-1.679-1.135-2.896-2.265-3.556a4.115 4.115 0 0 0-1.255-.477 4.6 4.6 0 0 0-.521-.077 5.644 5.644 0 0 0-1.703.12c-.799.172-1.649.507-2.532 1.015L42.161 94.76c-2.35 1.35-4.496 3.687-6.061 6.364-1.565 2.678-2.549 5.696-2.574 8.41l-.38 40.884a9.737 9.737 0 0 0 .156 1.882c.108.575.271 1.096.482 1.561.423.929 1.04 1.631 1.806 2.079 1.531.895 3.656.772 6.004-.584l38.953-22.036-9.733-5.537L51.517 138.8c-2.925 1.689-5.292.305-5.261-3.075l.082-8.833.154-16.626c.016-1.69.628-3.57 1.603-5.237.975-1.667 2.311-3.123 3.774-3.963l.119-.068.018-.01 41.795-23.861 7.687-4.388c2.929-1.686 5.297-.302 5.261 3.075l-.014 1.449-.139 14.982-.084 9.028c-.014 1.688-.627 3.567-1.602 5.235s-2.312 3.124-3.775 3.965l-5.548 3.167-.106.06c2.185 1.156 3.981 1.999 4.889 2.191 3.634.768 8.21-1.872 9.758-2.765.629-.363 3.062-1.723 5.761-3.26.065-.123.132-.244.195-.368 1.205-2.38 1.942-4.945 1.962-7.281l.155-16.666.139-14.982.086-9.236a9.542 9.542 0 0 0-.173-1.961z" opacity=".4"></path>
  </g>
</svg>